# xmcd CD database file
#
# Track frame offsets:
#	187
#	25487
#	34912
#
# Disc length: 799 seconds
#
# Revision: 0
# Processed by: cddbd v1.5.1PL0 Copyright (c) Steve Scherf et al.
# Submitted via: CDex 1.51
#
DISCID=20031d03
DTITLE=グレート・チキン・パワーズ - 忘れないスクールデイズ
DYEAR=1995
DGENRE=JPop
TTITLE0=忘れないスクールデイズ
TTITLE1=ＳＯＴＳＵＧＹＯ
TTITLE2=忘れないスクールデイズ（カラオケ）
EXTD=YEAR: 1995
EXTT0=
EXTT1=
EXTT2=
PLAYORDER=
